<svg width="920" height="920" viewBox="0 0 920 920" fill="none" xmlns="http://www.w3.org/2000/svg">
<path d="M774 351.918C774 306.604 749.828 264.732 710.59 242.075L523.41 133.993C484.172 111.336 435.828 111.336 396.59 133.993L209.41 242.075C170.172 264.732 146 306.604 146 351.918V568.082C146 613.396 170.172 655.268 209.41 677.925L396.59 786.007C435.828 808.664 484.172 808.664 523.41 786.007L710.59 677.925C749.828 655.268 774 613.396 774 568.082V351.918Z" fill="url(#paint0_radial)"/>
<path fill-rule="evenodd" clip-rule="evenodd" d="M689.453 278.689L502.273 170.607C476.115 155.503 443.885 155.503 417.727 170.607L230.547 278.689C204.388 293.794 188.273 321.709 188.273 351.918V568.082C188.273 598.291 204.388 626.206 230.547 641.311L417.727 749.393C443.885 764.497 476.115 764.497 502.273 749.393L689.453 641.311C715.612 626.206 731.727 598.291 731.727 568.082V351.918C731.727 321.709 715.612 293.794 689.453 278.689ZM710.59 242.075C749.828 264.732 774 306.604 774 351.918V568.082C774 613.396 749.828 655.268 710.59 677.925L523.41 786.007C484.172 808.664 435.828 808.664 396.59 786.007L209.41 677.925C170.172 655.268 146 613.396 146 568.082V351.918C146 306.604 170.172 264.732 209.41 242.075L396.59 133.993C435.828 111.336 484.172 111.336 523.41 133.993L710.59 242.075Z" fill="white"/>
<path d="M324.494 563C317.539 563.006 310.634 560.058 305.796 554.327C297.061 543.995 298.343 528.533 308.671 519.79L381.617 458.002L308.671 396.215C298.349 387.472 297.061 372.009 305.796 361.677C314.523 351.345 329.971 350.056 340.292 358.799L435.33 439.291C440.825 443.95 444 450.791 444 458.002C444 465.207 440.825 472.055 435.33 476.707L340.292 557.205C335.696 561.098 330.079 563 324.494 563Z" fill="white"/>
<path d="M595.534 563H480.466C466.952 563 456 552.032 456 538.5C456 524.974 466.952 514 480.466 514H595.534C609.048 514 620 524.974 620 538.5C620 552.032 609.048 563 595.534 563Z" fill="white"/>
<defs>
<radialGradient id="paint0_radial" cx="0" cy="0" r="1" gradientUnits="userSpaceOnUse" gradientTransform="translate(774 237.201) rotate(140.044) scale(933.498 1031.95)">
<stop stop-color="#35FFCF"/>
<stop offset="1" stop-color="#2D32B9"/>
</radialGradient>
</defs>
</svg>