<svg width="920" height="920" viewBox="0 0 920 920" fill="none" xmlns="http://www.w3.org/2000/svg">
<path d="M457.18 127C287.3 127 297.91 200.67 297.91 200.67L298.1 276.99H460.21V299.9H233.71C233.71 299.9 125 287.58 125 458.98C125 630.38 219.88 624.31 219.88 624.31H276.51V544.77C276.51 544.77 273.45 449.85 369.87 449.85H530.66C530.66 449.85 620.99 451.31 620.99 362.55V215.85C620.99 215.85 634.71 127 457.18 127ZM367.79 178.32C375.517 178.315 382.929 181.378 388.397 186.837C393.866 192.296 396.942 199.703 396.95 207.43C396.957 211.258 396.209 215.05 394.749 218.588C393.289 222.127 391.146 225.343 388.443 228.053C385.739 230.763 382.528 232.914 378.993 234.382C375.458 235.85 371.668 236.607 367.84 236.61H367.79C360.063 236.626 352.647 233.572 347.171 228.121C341.695 222.67 338.609 215.267 338.59 207.54V207.49C338.586 203.663 339.336 199.873 340.797 196.336C342.257 192.799 344.401 189.585 347.104 186.876C349.807 184.167 353.017 182.018 356.551 180.55C360.085 179.082 363.873 178.324 367.7 178.32H367.79Z" fill="url(#paint0_linear)"/>
<path d="M462.001 792.691C631.881 792.691 621.281 719.021 621.281 719.021L621.091 642.701H458.971V619.791H685.471C685.471 619.791 794.181 632.121 794.181 460.701C794.181 289.281 699.301 295.371 699.301 295.371H642.671V374.911C642.671 374.911 645.731 469.791 549.311 469.791H388.521C388.521 469.791 298.191 468.331 298.191 557.101V703.851C298.191 703.851 284.471 792.671 462.001 792.671V792.691ZM551.391 741.371C547.565 741.375 543.775 740.625 540.239 739.164C536.703 737.703 533.489 735.559 530.781 732.856C528.073 730.153 525.924 726.943 524.457 723.409C522.99 719.875 522.234 716.087 522.231 712.261C522.227 708.434 522.977 704.644 524.438 701.107C525.899 697.57 528.042 694.355 530.745 691.647C533.448 688.938 536.658 686.788 540.192 685.32C543.726 683.852 547.514 683.094 551.341 683.091C555.17 683.077 558.964 683.819 562.506 685.272C566.049 686.726 569.27 688.863 571.986 691.561C574.702 694.26 576.86 697.467 578.337 701C579.813 704.533 580.579 708.322 580.591 712.151V712.201C580.596 719.93 577.532 727.345 572.071 732.815C566.61 738.285 559.201 741.363 551.471 741.371H551.391Z" fill="url(#paint1_linear)"/>
<defs>
<linearGradient id="paint0_linear" x1="191.93" y1="192.868" x2="525.539" y2="525.735" gradientUnits="userSpaceOnUse">
<stop stop-color="#387EB9"/>
<stop offset="1" stop-color="#366994"/>
</linearGradient>
<linearGradient id="paint1_linear" x1="393.096" y1="411.662" x2="745.197" y2="744.49" gradientUnits="userSpaceOnUse">
<stop stop-color="#FFDF44"/>
<stop offset="1" stop-color="#FFC219"/>
</linearGradient>
</defs>
</svg>